<svg width="35" height="35" viewBox="0 0 35 35" fill="none" xmlns="http://www.w3.org/2000/svg">
<ellipse cx="17.0557" cy="17.5" rx="17.0557" ry="17" fill="white"/>
<path d="M21.6292 25.09C20.7308 25.9608 19.75 25.8233 18.8058 25.4108C17.8067 24.9892 16.89 24.9708 15.8358 25.4108C14.5158 25.9792 13.8192 25.8142 13.0308 25.09C8.55749 20.4792 9.21749 13.4575 14.2958 13.2008C15.5333 13.265 16.395 13.8792 17.1192 13.9342C18.2008 13.7142 19.2367 13.0817 20.3917 13.1642C21.7758 13.2742 22.8208 13.8242 23.5083 14.8142C20.6483 16.5283 21.3267 20.2958 23.9483 21.35C23.4258 22.725 22.7475 24.0908 21.62 25.0992L21.6292 25.09ZM17.0275 13.1458C16.89 11.1017 18.5492 9.415 20.4558 9.25C20.7217 11.615 18.3108 13.375 17.0275 13.1458Z" fill="black"/>
</svg>
