<svg width="24" height="24" viewBox="0 0 24 24" fill="none" xmlns="http://www.w3.org/2000/svg">
<rect width="24" height="24" rx="12" fill="#E67E22"/>
<path d="M12.525 8.99908L14.9995 11.4736L9.2245 17.2486H6.75V14.7735L12.525 8.99908ZM13.3498 8.17367L14.5871 6.93642C14.6965 6.82706 14.8448 6.76562 14.9995 6.76562C15.1542 6.76562 15.3025 6.82706 15.4119 6.93642L17.0622 8.58608C17.1164 8.64026 17.1594 8.70459 17.1888 8.77541C17.2181 8.84623 17.2333 8.92213 17.2333 8.99879C17.2333 9.07545 17.2181 9.15136 17.1888 9.22217C17.1594 9.29299 17.1164 9.35732 17.0622 9.4115L15.8243 10.6488L13.3498 8.17367Z" fill="white"/>
</svg>
