<svg width="35" height="35" viewBox="0 0 35 35" fill="none" xmlns="http://www.w3.org/2000/svg">
<ellipse cx="17.0557" cy="17.5" rx="17.0557" ry="17" fill="white"/>
<g clip-path="url(#clip0_658_19677)">
<path d="M28 17.5C28 11.4249 23.0751 6.5 17 6.5C10.9249 6.5 6 11.4249 6 17.5C6 22.9904 10.0226 27.5412 15.2812 28.3664V20.6797H12.4883V17.5H15.2812V15.0766C15.2812 12.3197 16.9235 10.7969 19.4362 10.7969C20.6396 10.7969 21.8984 11.0117 21.8984 11.0117V13.7188H20.5114C19.1449 13.7188 18.7188 14.5667 18.7188 15.4366V17.5H21.7695L21.2818 20.6797H18.7188V28.3664C23.9774 27.5412 28 22.9905 28 17.5Z" fill="#1877F2"/>
<path d="M21.2818 20.6797L21.7695 17.5H18.7188V15.4366C18.7188 14.5666 19.1449 13.7188 20.5114 13.7188H21.8984V11.0117C21.8984 11.0117 20.6396 10.7969 19.4361 10.7969C16.9235 10.7969 15.2812 12.3197 15.2812 15.0766V17.5H12.4883V20.6797H15.2812V28.3664C15.8498 28.4555 16.4245 28.5001 17 28.5C17.5755 28.5001 18.1502 28.4555 18.7188 28.3664V20.6797H21.2818Z" fill="white"/>
</g>
<defs>
<clipPath id="clip0_658_19677">
<rect width="22" height="22" fill="white" transform="translate(6 6.5)"/>
</clipPath>
</defs>
</svg>
