<svg width="35" height="35" viewBox="0 0 35 35" fill="none" xmlns="http://www.w3.org/2000/svg">
<ellipse cx="17.0557" cy="17.5" rx="17.0557" ry="17" fill="white"/>
<g clip-path="url(#clip0_658_19685)">
<path d="M22.8438 6.5H11.1562C8.30853 6.5 6 8.80853 6 11.6562V23.3438C6 26.1915 8.30853 28.5 11.1562 28.5H22.8438C25.6915 28.5 28 26.1915 28 23.3438V11.6562C28 8.80853 25.6915 6.5 22.8438 6.5Z" fill="url(#paint0_radial_658_19685)"/>
<path d="M22.8438 6.5H11.1562C8.30853 6.5 6 8.80853 6 11.6562V23.3438C6 26.1915 8.30853 28.5 11.1562 28.5H22.8438C25.6915 28.5 28 26.1915 28 23.3438V11.6562C28 8.80853 25.6915 6.5 22.8438 6.5Z" fill="url(#paint1_radial_658_19685)"/>
<path d="M17.0008 8.90625C14.6669 8.90625 14.3739 8.91648 13.4573 8.95816C12.5424 9.00009 11.9179 9.1449 11.3715 9.35742C10.8062 9.57691 10.3268 9.87055 9.84914 10.3484C9.37107 10.8261 9.07742 11.3055 8.85725 11.8706C8.64413 12.4171 8.49915 13.0419 8.45798 13.9564C8.41699 14.8731 8.40625 15.1661 8.40625 17.5001C8.40625 19.8341 8.41656 20.1261 8.45816 21.0427C8.50027 21.9576 8.64507 22.5821 8.85742 23.1285C9.07708 23.6938 9.37073 24.1732 9.84854 24.6509C10.3261 25.1289 10.8055 25.4233 11.3704 25.6427C11.9172 25.8553 12.5418 26.0001 13.4565 26.042C14.3732 26.0837 14.6659 26.0939 16.9997 26.0939C19.3339 26.0939 19.6259 26.0837 20.5425 26.042C21.4574 26.0001 22.0826 25.8553 22.6294 25.6427C23.1945 25.4233 23.6732 25.1289 24.1507 24.6509C24.6288 24.1732 24.9223 23.6938 25.1426 23.1287C25.3538 22.5821 25.4989 21.9574 25.5418 21.0429C25.583 20.1262 25.5938 19.8341 25.5938 17.5001C25.5938 15.1661 25.583 14.8732 25.5418 13.9565C25.4989 13.0416 25.3538 12.4172 25.1426 11.8708C24.9223 11.3055 24.6288 10.8261 24.1507 10.3484C23.6727 9.87038 23.1946 9.57673 22.6289 9.35751C22.0811 9.1449 21.4562 9.00001 20.5413 8.95816C19.6246 8.91648 19.3328 8.90625 16.9981 8.90625H17.0008ZM16.2298 10.4549C16.4587 10.4546 16.714 10.4549 17.0008 10.4549C19.2954 10.4549 19.5673 10.4632 20.4734 10.5043C21.3113 10.5427 21.7661 10.6827 22.069 10.8003C22.4701 10.956 22.756 11.1423 23.0566 11.4431C23.3574 11.7439 23.5435 12.0303 23.6997 12.4314C23.8173 12.7339 23.9575 13.1887 23.9957 14.0266C24.0368 14.9325 24.0458 15.2046 24.0458 17.4981C24.0458 19.7916 24.0368 20.0638 23.9957 20.9696C23.9573 21.8075 23.8173 22.2623 23.6997 22.5649C23.544 22.966 23.3574 23.2515 23.0566 23.5521C22.7558 23.8529 22.4703 24.0391 22.069 24.1949C21.7664 24.313 21.3113 24.4527 20.4734 24.491C19.5675 24.5322 19.2954 24.5411 17.0008 24.5411C14.7061 24.5411 14.4341 24.5322 13.5282 24.491C12.6903 24.4523 12.2355 24.3124 11.9324 24.1947C11.5314 24.0389 11.2449 23.8528 10.9441 23.552C10.6433 23.2512 10.4571 22.9655 10.301 22.5642C10.1834 22.2616 10.0432 21.8068 10.005 20.969C9.96387 20.063 9.95562 19.7909 9.95562 17.496C9.95562 15.201 9.96387 14.9304 10.005 14.0244C10.0434 13.1865 10.1834 12.7318 10.301 12.4288C10.4568 12.0278 10.6433 11.7413 10.9442 11.4405C11.245 11.1398 11.5314 10.9535 11.9324 10.7975C12.2354 10.6793 12.6903 10.5397 13.5282 10.5012C14.321 10.4653 14.6282 10.4546 16.2298 10.4528V10.4549ZM21.5881 11.8818C21.0188 11.8818 20.5569 12.3433 20.5569 12.9127C20.5569 13.4821 21.0188 13.944 21.5881 13.944C22.1575 13.944 22.6194 13.4821 22.6194 12.9127C22.6194 12.3434 22.1575 11.8815 21.5881 11.8815V11.8818ZM17.0008 13.0868C14.5636 13.0868 12.5875 15.0628 12.5875 17.5001C12.5875 19.9374 14.5636 21.9125 17.0008 21.9125C19.438 21.9125 21.4134 19.9374 21.4134 17.5001C21.4134 15.0629 19.4379 13.0868 17.0006 13.0868H17.0008ZM17.0008 14.6354C18.5828 14.6354 19.8654 15.9179 19.8654 17.5001C19.8654 19.0821 18.5828 20.3647 17.0008 20.3647C15.4188 20.3647 14.1362 19.0821 14.1362 17.5001C14.1362 15.9179 15.4187 14.6354 17.0008 14.6354Z" fill="white"/>
</g>
<defs>
<radialGradient id="paint0_radial_658_19685" cx="0" cy="0" r="1" gradientUnits="userSpaceOnUse" gradientTransform="translate(11.8437 30.1944) rotate(-90) scale(21.8036 20.2791)">
<stop stop-color="#FFDD55"/>
<stop offset="0.1" stop-color="#FFDD55"/>
<stop offset="0.5" stop-color="#FF543E"/>
<stop offset="1" stop-color="#C837AB"/>
</radialGradient>
<radialGradient id="paint1_radial_658_19685" cx="0" cy="0" r="1" gradientUnits="userSpaceOnUse" gradientTransform="translate(2.31491 8.08477) rotate(78.681) scale(9.74634 40.1747)">
<stop stop-color="#3771C8"/>
<stop offset="0.128" stop-color="#3771C8"/>
<stop offset="1" stop-color="#6600FF" stop-opacity="0"/>
</radialGradient>
<clipPath id="clip0_658_19685">
<rect width="22" height="22" fill="white" transform="translate(6 6.5)"/>
</clipPath>
</defs>
</svg>
