<svg width="51" height="51" viewBox="0 0 51 51" fill="none" xmlns="http://www.w3.org/2000/svg">
<g clip-path="url(#clip0_612_16967)">
<path d="M44.7195 0C46.2111 0.315151 47.3474 1.44544 47.5816 2.96269L47.6122 26.0246C55.8738 36.6466 48.0619 51.8045 34.5059 50.9681C29.5907 50.6649 24.8525 47.5546 22.4282 43.33C21.3611 41.471 20.8169 39.4684 20.423 37.3714L2.74619 37.3195C1.28255 37.0256 0.379083 35.9366 -0.00146484 34.5403V2.78716C0.37376 1.39092 1.39565 0.372331 2.78877 0H44.7195ZM44.3217 1.69277H3.28641L3.88251 2.34169C10.099 7.29502 15.8471 12.8707 22.0636 17.816C23.5486 18.9968 24.0502 18.9915 25.5444 17.816C31.7769 12.9146 37.5942 7.18199 43.8254 2.24196L44.3217 1.69277ZM1.79349 34.539L20.4177 18.7601L1.79349 2.78716V34.539ZM45.9157 24.2866V3.13556C45.9157 3.11694 45.8093 2.84168 45.7667 2.78716L27.1957 18.7522L30.268 21.3532C35.6156 19.3811 41.6818 20.4928 45.9157 24.2879V24.2866ZM20.4177 35.6347C20.3605 30.0019 23.6178 24.8371 28.4837 22.147L25.7653 19.8226C24.7966 20.3399 23.8905 20.5606 22.8074 20.2575C22.5293 20.179 21.8787 19.7708 21.7163 19.8519L3.28641 35.6347H20.4177ZM34.4407 22.1271C24.154 22.9675 18.6081 34.9406 24.5199 43.4297C30.2201 51.6157 42.6305 51.0691 47.5257 42.3699C52.9372 32.7531 45.3675 21.2335 34.4407 22.1271Z" fill="#E67E22"/>
<path d="M27.3915 34.2412C28.0701 33.6774 29.068 34.1521 28.8658 35.0656C28.8139 35.3023 27.2717 36.8741 26.995 37.0802C26.6756 37.3169 26.48 37.4007 26.0675 37.3063C25.7775 37.2398 23.8894 35.3582 23.8242 35.0656C23.574 33.938 25.0217 33.6614 25.5965 34.5404C26.5532 25.4249 38.4034 22.1444 43.9054 29.6323C49.6894 37.5031 42.1463 48.1943 32.7697 45.4404C30.8071 44.8632 28.2204 43.1505 27.2092 41.3421C26.665 40.3673 27.5232 39.5522 28.3588 40.0934C28.6662 40.2929 28.9922 40.9471 29.2796 41.2636C32.0033 44.2542 36.2918 45.1026 39.8697 43.0827C45.3211 40.0057 45.6271 32.1162 40.4099 28.6469C35.3244 25.2653 28.2976 28.2134 27.3901 34.2438L27.3915 34.2412Z" fill="#3498DB"/>
<path d="M38.2569 33.3343C39.0832 33.47 39.8257 34.4952 39.9308 35.2944C40.0412 36.1375 40.0412 38.6148 39.9308 39.4578C39.7791 40.6201 38.7506 41.5057 37.6023 41.6107C36.7214 41.6918 33.7143 41.7091 32.9971 41.4272C32.2799 41.1453 31.5854 40.3142 31.4816 39.5576C31.3671 38.7145 31.3671 36.0377 31.4816 35.1947C31.6106 34.2465 32.3997 33.6442 33.1501 33.1801C32.8853 31.1748 34.031 29.4714 36.1945 29.7706C37.8857 30.0046 38.4538 31.8556 38.2556 33.3343H38.2569ZM36.5524 33.1455C36.5804 32.4474 36.6496 31.4434 35.7062 31.4448C34.6963 31.4461 34.8453 32.4115 34.8599 33.1455H36.5538H36.5524ZM38.0147 35.0683C37.903 34.946 37.6715 34.8542 37.5025 34.833C36.9929 34.7705 34.0363 34.7638 33.6584 34.8822C33.3457 34.9792 33.1994 35.2718 33.1634 35.5816C33.1022 36.1109 33.0876 39.0297 33.21 39.4206C33.3071 39.7331 33.5999 39.8794 33.9099 39.9153C34.6936 40.0057 36.5019 39.9911 37.3029 39.9179C37.8923 39.8648 38.1784 39.6799 38.2463 39.0682C38.3328 38.2943 38.3208 36.5643 38.2489 35.7758C38.2276 35.5431 38.1718 35.2399 38.0121 35.0657L38.0147 35.0683Z" fill="#3498DB"/>
</g>
<defs>
<clipPath id="clip0_612_16967">
<rect width="51" height="51" fill="white"/>
</clipPath>
</defs>
</svg>
