<svg width="14" height="15" viewBox="0 0 14 15" fill="none" xmlns="http://www.w3.org/2000/svg">
<path d="M4.94439 1.17356C5.55285 0.767001 6.26821 0.55 7 0.55C7.9813 0.55 8.92241 0.93982 9.61629 1.6337C10.3102 2.32759 10.7 3.2687 10.7 4.25C10.7 4.98179 10.483 5.69715 10.0764 6.30561C9.66988 6.91407 9.09202 7.38831 8.41593 7.66835C7.73984 7.9484 6.9959 8.02167 6.27817 7.87891C5.56044 7.73614 4.90116 7.38375 4.38371 6.86629C3.86625 6.34884 3.51386 5.68956 3.37109 4.97183C3.22833 4.2541 3.3016 3.51016 3.58165 2.83407C3.86169 2.15798 4.33593 1.58012 4.94439 1.17356ZM5.72219 6.16238C6.10042 6.41511 6.5451 6.55 7 6.55C7.61 6.55 8.19501 6.30768 8.62635 5.87635C9.05768 5.44501 9.3 4.86 9.3 4.25C9.3 3.7951 9.16511 3.35042 8.91238 2.97219C8.65965 2.59396 8.30044 2.29916 7.88017 2.12508C7.4599 1.951 6.99745 1.90545 6.55129 1.99419C6.10514 2.08294 5.69531 2.30199 5.37365 2.62365C5.05199 2.94532 4.83294 3.35514 4.74419 3.80129C4.65545 4.24745 4.701 4.7099 4.87508 5.13017C5.04916 5.55044 5.34396 5.90965 5.72219 6.16238ZM13.7 14V14.7H12.3V14C12.3 12.9922 11.8996 12.0256 11.187 11.313C10.4744 10.6004 9.50782 10.2 8.5 10.2H5.5C4.49218 10.2 3.52563 10.6004 2.81299 11.313C2.10036 12.0256 1.7 12.9922 1.7 14V14.7H0.3V14C0.3 12.6209 0.847856 11.2982 1.82304 10.323C2.79823 9.34786 4.12087 8.8 5.5 8.8H8.5C9.87913 8.8 11.2018 9.34786 12.177 10.323C13.1521 11.2982 13.7 12.6209 13.7 14Z" fill="#111111" stroke="white" stroke-width="0.1"/>
</svg>
