<svg width="288" height="71" viewBox="0 0 288 71" fill="none" xmlns="http://www.w3.org/2000/svg">
<g clip-path="url(#clip0_612_16619)">
<path d="M75.9579 32.1064C75.9579 28.0541 79.5514 26.474 83.986 26.474C86.7894 26.474 92.3963 26.9837 92.8806 32.2593H88.7518C88.6244 30.8576 87.3501 29.3284 84.1644 29.3284C81.6158 29.3284 79.9337 30.1185 79.9337 31.8261C79.9337 36.1077 93.4922 32.0045 93.4922 39.7777C93.4922 44.4671 88.6244 45.6904 84.7506 45.6904C78.2007 45.6904 75.5756 43.1163 75.5247 39.2934H79.6534C79.7553 41.6891 81.7432 42.836 84.878 42.836C87.1972 42.836 89.3635 42.1478 89.3635 40.1599C89.3635 35.6489 75.9579 39.5738 75.9579 32.1064ZM103.284 34.0178C99.9965 34.0178 98.7477 36.2351 98.7477 38.4779C98.7477 40.7716 99.9965 42.9889 103.284 42.9889C106.597 42.9889 107.846 40.7716 107.846 38.4779C107.846 36.2351 106.597 34.0178 103.284 34.0178ZM95.3835 50.3288V31.6731H98.9006V33.6101H98.9516C99.9965 31.979 102.01 31.3163 104.125 31.3163C109.273 31.3163 111.516 35.0628 111.516 38.4779C111.516 41.944 109.273 45.6904 104.125 45.6904C101.322 45.6904 99.2064 44.1357 98.9516 43.3202H98.9006V50.3288H95.3835ZM116.86 38.4269C116.86 40.7716 118.134 42.9889 121.549 42.9889C124.965 42.9889 126.239 40.7716 126.239 38.4269C126.239 36.0822 124.965 33.8649 121.549 33.8649C118.134 33.8649 116.86 36.0822 116.86 38.4269ZM113.19 38.4269C113.19 34.706 115.509 31.1634 121.549 31.1634C127.59 31.1634 129.909 34.706 129.909 38.4269C129.909 42.1478 127.59 45.6904 121.549 45.6904C115.509 45.6904 113.19 42.1478 113.19 38.4269ZM132.169 45.1807V31.6731H135.686V34.2982H135.737C136.68 32.769 138.133 31.3163 140.834 31.3163C141.369 31.3163 141.777 31.3673 142.236 31.4438V34.9098C141.267 34.604 140.605 34.5785 139.993 34.5785C138.209 34.5785 135.686 35.5215 135.686 38.6563V45.1807H132.169ZM145.062 41.4088V34.2217H142.258V31.6731H145.062V27.4935H148.579V31.6731H152.249V34.2217H148.579V40.3893C148.579 41.944 148.655 42.785 149.853 42.785C150.72 42.785 151.535 42.7595 152.376 42.734V45.2826C151.433 45.41 150.745 45.4865 149.675 45.4865C145.393 45.4865 145.062 43.9573 145.062 41.4088Z" fill="#2ECC71"/>
<path d="M160.029 45.1807V29.2058H152.917V26.2338H171.121V29.2058H164.009V45.1807H160.029ZM170.626 45.1807V31.1164H174.288V33.8497H174.341C175.323 32.2575 176.835 30.7449 179.648 30.7449C180.205 30.7449 180.63 30.798 181.108 30.8776V34.4866C180.099 34.1681 179.409 34.1416 178.772 34.1416C176.915 34.1416 174.288 35.1234 174.288 38.3874V45.1807H170.626ZM199.547 39.0773H186.279C186.359 40.643 187.42 43.0578 191.056 43.0578C193.471 43.0578 194.532 42.2086 195.248 41.041H199.229C198.433 42.6066 196.522 45.7114 191.162 45.7114C184.82 45.7114 182.458 42.0228 182.458 38.2812C182.458 33.5843 185.934 30.5857 190.923 30.5857C197.159 30.5857 199.547 34.4335 199.547 38.5466V39.0773ZM186.279 36.7421H195.726C195.275 33.9293 192.781 33.0801 190.976 33.0801C189.278 33.0801 186.89 33.8762 186.279 36.7421ZM202.06 45.1807V31.1164H205.722V33.2393H205.775C206.969 31.7268 208.827 30.7449 211.321 30.7449C214.346 30.7449 217.292 31.8329 217.292 35.6276V45.1807H213.63V36.7952C213.63 35.2826 213.125 33.5578 210.1 33.5578C208.19 33.5578 205.722 34.6192 205.722 37.6178V45.1807H202.06ZM223.463 38.2016C223.463 40.5899 224.763 42.8985 228.213 42.8985C231.636 42.8985 232.936 40.5899 232.936 38.2016C232.936 35.8664 231.636 33.5578 228.213 33.5578C224.763 33.5578 223.463 35.8664 223.463 38.2016ZM236.439 25.9153V45.1807H232.777V43.2435H232.724C232.458 44.0927 230.256 45.7114 227.337 45.7114C221.976 45.7114 219.641 41.8106 219.641 38.2016C219.641 34.6458 221.976 30.7449 227.337 30.7449C229.539 30.7449 231.636 31.4349 232.724 33.1332H232.777V25.9153H236.439ZM239.508 45.1807V31.1164H243.17V45.1807H239.508ZM239.508 28.8874V25.9153H243.17V28.8874H239.508ZM246.244 45.1807V31.1164H249.906V33.2393H249.959C251.153 31.7268 253.01 30.7449 255.505 30.7449C258.53 30.7449 261.476 31.8329 261.476 35.6276V45.1807H257.813V36.7952C257.813 35.2826 257.309 33.5578 254.284 33.5578C252.374 33.5578 249.906 34.6192 249.906 37.6178V45.1807H246.244ZM267.54 37.8567C267.54 39.9265 268.787 42.2086 272.635 42.2086C275.422 42.2086 277.359 40.4041 277.359 37.8036C277.359 34.4335 274.201 33.5578 272.317 33.5578C269.584 33.5578 267.54 35.3357 267.54 37.8567ZM277.359 31.0634H281.021V44.703C281.021 48.0466 278.871 51.0186 272.662 51.0186C268.31 51.0186 264.727 50.0633 264.409 46.4279H268.23C268.602 48.2323 270.327 48.5242 272.556 48.5242C276.748 48.5242 277.359 46.2952 277.359 44.4642V42.7659H277.279C275.528 44.4376 273.697 45.0214 271.547 45.0214C267.832 45.0214 263.719 43.1374 263.719 37.9097C263.719 34.3008 266.107 30.7449 271.521 30.7449C274.36 30.7449 276.456 31.6472 277.306 33.1332H277.359V31.0634Z" fill="#E67E22"/>
<path d="M39.4604 53.1501C37.7353 54.5091 35.6053 54.0986 34.4627 52.8506C34.8399 52.9116 35.2226 52.9615 35.5998 53.0059C36.8756 53.1501 38.1736 53.2056 39.4604 53.1557V53.1501Z" fill="white"/>
<path d="M36.2766 43.5424C35.145 44.7017 34.0301 45.8776 32.9041 47.048C32.7987 47.1534 32.6877 47.2532 32.5158 47.4141C32.4603 47.1756 32.4215 47.0147 32.3827 46.8539L30.5411 39.1271C30.0641 37.1246 29.587 35.1167 29.11 33.1143L34.252 33.4193C34.729 35.4273 35.206 37.4297 35.6886 39.4377C35.9549 40.5415 36.2156 41.6509 36.4818 42.7547C36.565 43.0875 36.5095 43.2983 36.2766 43.5368V43.5424Z" fill="url(#paint0_linear_612_16619)"/>
<path d="M55.7627 34.0073C55.4965 34.5565 55.0694 35.0335 54.67 35.505C54.4204 35.799 54.1763 36.0929 53.9267 36.3925C52.5123 38.0787 51.0923 39.765 49.6778 41.4512C46.4218 45.3229 43.1658 49.2002 39.9375 53.0997C39.7489 53.3271 39.5492 53.5268 39.344 53.6987C38.0793 53.7653 36.8146 53.732 35.561 53.5989C35.1894 53.5601 34.8122 53.5101 34.4405 53.4602C34.2464 53.2439 34.0744 52.9943 33.9302 52.7391C33.3644 51.7351 33.3922 51.5465 34.1299 50.709C37.2805 47.1312 40.4312 43.559 43.5873 39.9813C45.1848 38.1675 46.7823 36.3536 48.3854 34.5343C48.7071 34.1682 49.0288 33.8021 49.3505 33.4415C49.4282 33.3528 49.5003 33.2529 49.6057 33.1198C43.9701 31.012 38.3677 28.9153 32.6766 26.7908C32.7321 27.0238 32.7654 27.168 32.7987 27.3122C33.2812 29.3479 33.7694 31.3836 34.2519 33.4194L29.11 33.1143C28.4333 30.2798 27.7566 27.4398 27.0798 24.6054C26.7248 23.1133 27.0299 21.8042 28.1393 20.778C29.2598 19.7408 30.5466 19.5799 31.9444 20.1401C39.172 23.0356 46.4052 25.92 53.6383 28.8099C55.8071 29.6752 56.7612 31.9661 55.7627 34.0129V34.0073Z" fill="url(#paint1_linear_612_16619)"/>
<path d="M11.7816 28.8269C11.2102 19.73 20.4624 15.3258 20.4624 15.3258C44.2807 5.2194 57.6099 23.1913 57.6099 23.1913C57.6099 23.1913 49.7 18.1714 36.9477 17.8274C24.1955 17.4835 19.8467 23.6128 19.8467 23.6128C13.906 31.9276 26.1092 32.9371 26.1092 32.9371L29.1045 33.1146L34.2464 33.4197L44.1531 34.0077C45.4123 34.1075 46.8711 34.2517 48.3743 34.5291C46.7768 36.3429 45.1738 38.1567 43.5763 39.9761C41.6626 39.8375 39.0112 39.6489 35.6775 39.4381C34.1077 39.3382 32.3938 39.2328 30.53 39.1274C29.0767 39.0442 27.5347 38.9555 25.9095 38.8667C12.3474 38.1346 11.7705 28.8269 11.7705 28.8269H11.7816Z" fill="#1A1D2D"/>
<path d="M56.4505 49.7668C54.8919 53.0893 52.4956 55.6187 49.4615 57.2883C46.7546 58.7804 43.7593 59.5459 40.7529 59.9397C35.084 60.683 29.1821 60.1172 23.968 57.5213C18.7595 54.9309 14.3054 50.1828 12.425 44.2254C15.5423 46.1058 18.7484 47.8143 22.0211 49.3452C26.0148 51.2145 30.1528 52.8231 34.4405 53.4554C34.8122 53.5109 35.1838 53.5553 35.561 53.5941C36.8146 53.7272 38.0848 53.7661 39.344 53.694C42.8052 53.5054 46.2221 52.5236 49.1342 50.4989C50.1992 49.7612 51.2198 48.846 51.7579 47.5924C52.6232 45.5733 51.414 42.9552 49.6778 41.4464C51.0978 39.7602 52.5123 38.0739 53.9267 36.3877C55.7239 37.3917 57.1994 38.8283 57.9371 40.8918C58.9244 43.6541 57.6043 47.2873 56.445 49.7557L56.4505 49.7668Z" fill="#1A1D2D"/>
<path d="M3.7774 39.7762C2.7124 39.8983 1.6474 40.0314 0.587945 40.2089C0.393804 40.2422 0.327242 40.1922 0.299508 39.9926C0.0110701 37.9513 -0.0610393 35.8934 0.0388044 33.8411C0.0831794 32.9314 0.122008 32.0161 0.299508 31.112C0.338336 30.9179 0.427086 30.9012 0.587945 30.9345C1.24802 31.0732 1.91919 31.1231 2.59037 31.2063C3.5056 31.3228 4.42084 31.4448 5.33052 31.5946C5.78537 31.6667 6.2513 31.7111 6.70615 31.761C7.46052 31.8442 8.20935 31.9718 8.96373 32.0661C8.81396 33.2143 8.7363 34.3847 8.7363 35.5772C8.7363 36.7698 8.81396 37.9402 8.96373 39.094C8.71966 39.1272 8.47005 39.155 8.22599 39.1883C7.18873 39.3269 6.14591 39.4379 5.10865 39.5987C4.6649 39.6708 4.22115 39.7263 3.7774 39.7762Z" fill="#E67E22"/>
<path d="M14.1778 51.9966C12.9242 52.9617 11.6762 53.9269 10.4226 54.8865C9.5018 55.5909 8.55883 56.2732 7.64915 56.9888C7.39399 57.1884 7.26087 57.1108 7.1111 56.9C6.71172 56.3398 6.29571 55.7851 5.91852 55.2082C5.10868 53.9823 4.38204 52.7066 3.72751 51.3864C3.40024 50.7208 3.10071 50.0441 2.77899 49.3729C2.67915 49.1677 2.82337 49.1455 2.95094 49.09C3.88282 48.7017 4.81469 48.3079 5.74657 47.9196C7.42172 47.2207 9.10243 46.5329 10.7776 45.834C11.6817 48.0195 12.8688 50.0607 14.2888 51.9078C14.2555 51.9355 14.2222 51.9633 14.1834 51.9855L14.1778 51.9966Z" fill="#2ECC71"/>
<path d="M2.80678 21.7605C3.72756 19.6194 4.81475 17.5782 6.1349 15.6534C6.47326 15.1653 6.82271 14.6827 7.15553 14.1946C7.28865 13.9949 7.42732 13.9616 7.64365 14.128C8.64764 14.9101 9.66271 15.6756 10.6778 16.4522C11.8704 17.3674 13.0685 18.2771 14.2611 19.1979C14.2722 19.209 14.2833 19.2145 14.2999 19.2256C12.8799 21.0727 11.6929 23.1084 10.7832 25.2939C9.13576 24.6172 7.49389 23.9294 5.84646 23.2471C4.86467 22.8422 3.88842 22.4317 2.91217 22.0268C2.74021 21.9547 2.75686 21.8992 2.81787 21.7605H2.80678Z" fill="#E67E22"/>
<path d="M19.22 56.8613C21.0726 58.2869 23.1139 59.4739 25.3049 60.3836C25.0165 61.0936 24.7225 61.8091 24.4285 62.5136C23.6353 64.4162 22.8365 66.3132 22.0489 68.2102C21.9823 68.3711 21.9546 68.421 21.7715 68.3378C19.8079 67.5002 17.922 66.5073 16.1359 65.3314C15.498 64.9098 14.8657 64.4827 14.25 64.0334C14.0226 63.867 13.9615 63.7228 14.1723 63.4621C14.7714 62.7244 15.3372 61.9534 15.914 61.199C16.857 59.962 17.7944 58.7195 18.7429 57.4826C18.9038 57.2718 19.0647 57.0666 19.2255 56.8613H19.22Z" fill="#2ECC71"/>
<path d="M24.9332 9.86195C25.0608 10.167 25.1828 10.4666 25.3048 10.7716C23.1249 11.6758 21.0837 12.8573 19.2366 14.2773C18.6985 13.5617 18.1549 12.8462 17.6113 12.1362C16.8902 11.1988 16.1525 10.2724 15.4259 9.32945C14.9877 8.76367 14.5716 8.18125 14.1223 7.62102C13.9393 7.39914 14.017 7.27156 14.2 7.13289C15.4813 6.18438 16.8126 5.31352 18.1993 4.52586C19.3364 3.88242 20.5234 3.33883 21.716 2.80633C21.888 2.72867 21.949 2.69539 22.0322 2.91172C22.4593 3.96562 22.9141 5.00289 23.3523 6.05125C23.8793 7.31594 24.4007 8.58617 24.9221 9.85086L24.9332 9.86195Z" fill="#E67E22"/>
<path d="M30.946 0.604348C30.9127 0.393567 30.9627 0.327004 31.179 0.29927C33.0538 0.0552076 34.9398 -0.0390893 36.8257 0.0219263C37.9018 0.0552076 38.9724 0.155051 40.0374 0.29927C40.2426 0.327004 40.2426 0.432395 40.2093 0.587708C40.0651 1.24779 40.0485 1.9245 39.932 2.58458C39.7711 3.49427 39.7378 4.41505 39.5381 5.31919C39.4438 5.7574 39.4272 6.21224 39.3828 6.65599C39.3052 7.427 39.1998 8.19802 39.0944 8.96349C37.9406 8.81372 36.7702 8.73607 35.5721 8.73607C34.374 8.73607 33.2313 8.81372 32.0887 8.95794C32.0332 8.56966 31.9777 8.18138 31.9223 7.7931C31.7725 6.66708 31.6227 5.54107 31.4841 4.41505C31.3288 3.13927 31.1291 1.86904 30.9349 0.598801L30.946 0.604348Z" fill="#E67E22"/>
<path d="M40.2149 70.5953C40.2759 70.7284 40.1927 70.8227 40.0263 70.8449C37.9074 71.1389 35.7773 71.2221 33.6473 71.1C32.8153 71.0501 31.9722 71.0501 31.1457 70.856C30.9516 70.8116 30.9016 70.7617 30.9349 70.5675C31.118 69.5192 31.2345 68.4653 31.3676 67.4114C31.5284 66.1855 31.6949 64.9597 31.8391 63.7338C31.9001 63.2179 31.9833 62.7021 32.0498 62.1862C33.2036 62.336 34.374 62.4136 35.5721 62.4136C36.7702 62.4136 37.9462 62.336 39.1055 62.1807C39.1277 62.3637 39.1443 62.5523 39.1609 62.7354C39.2441 63.7282 39.4272 64.71 39.527 65.7029C39.6546 66.9898 39.8876 68.2711 40.0762 69.5525C40.1261 69.8964 40.0706 70.2514 40.2149 70.5897V70.5953Z" fill="#2ECC71"/>
<path d="M57.0163 63.5002C57.216 63.7665 57.1106 63.8996 56.9054 64.0438C56.3396 64.4432 55.7849 64.8592 55.208 65.242C53.9822 66.0463 52.7119 66.784 51.3918 67.433C50.7261 67.7602 50.0439 68.0542 49.3727 68.3704C49.2507 68.4259 49.1896 68.4314 49.1231 68.2761C48.7348 67.3331 48.3354 66.3957 47.9361 65.4527C47.6476 64.7705 47.3592 64.0937 47.0763 63.4115C46.6603 62.402 46.2664 61.3869 45.8504 60.3829C48.0248 59.4787 50.0605 58.2973 51.9021 56.8828C51.9464 56.9438 51.9964 57.0048 52.0407 57.0659C52.7896 58.0366 53.5495 59.0073 54.2983 59.978C55.0472 60.9487 55.7904 61.9138 56.5226 62.8956C56.6779 63.1009 56.8499 63.295 57.0052 63.5002H57.0163Z" fill="#2ECC71"/>
<path d="M51.9242 14.2887C50.0716 12.8632 48.0303 11.6761 45.8393 10.772C45.8892 10.6555 45.9336 10.539 45.9835 10.4225C46.5493 9.05801 47.1207 7.69348 47.6864 6.32895C48.1191 5.28614 48.5573 4.24332 48.9844 3.19496C49.1841 2.71239 49.2174 2.6902 49.6778 2.90653C51.6913 3.84949 53.666 4.85348 55.4964 6.13481C55.9679 6.46762 56.4283 6.82262 56.922 7.1277C57.0773 7.22199 57.2104 7.33293 57.0218 7.59918C56.4228 8.43121 55.7849 9.22996 55.1581 10.0398C54.6256 10.7332 54.0931 11.4265 53.5606 12.1254C53.0114 12.8465 52.4678 13.5676 51.9187 14.2887H51.9242Z" fill="#3498DB"/>
<path d="M56.8666 19.231C57.9871 18.3768 59.1075 17.5281 60.2225 16.6739C61.2708 15.8696 62.3081 15.0542 63.3565 14.2499C63.7891 13.9171 63.8335 13.9171 64.1441 14.3609C65.0261 15.6422 65.9025 16.9235 66.6513 18.2936C67.2615 19.4085 67.8217 20.5401 68.3209 21.7105C68.3986 21.888 68.4374 21.9545 68.1989 22.0488C67.0174 22.5203 65.847 23.0251 64.6766 23.5188C63.4175 24.0457 62.1528 24.5671 60.8936 25.0885C60.7217 25.1606 60.5497 25.2327 60.3778 25.2993C59.4736 23.1138 58.2866 21.0781 56.8666 19.231Z" fill="#3498DB"/>
<path d="M68.3486 49.4169C67.5388 51.2807 66.5903 53.0723 65.5197 54.7918C65.0649 55.524 64.5379 56.2118 64.0332 56.9163C63.9056 57.0938 63.7836 57.2047 63.5229 57.0106C62.7352 56.4171 61.9586 55.8125 61.1765 55.2079C59.9618 54.2704 58.7304 53.3663 57.5211 52.4233C57.3048 52.2569 57.0885 52.0905 56.8666 51.9241C58.2922 50.0714 59.4792 48.0302 60.3833 45.8447C60.8382 46.0333 61.293 46.2275 61.7479 46.4161C63.1346 46.9929 64.5213 47.5643 65.9136 48.1411C66.6846 48.4629 67.4556 48.7901 68.2322 49.1007C68.4208 49.1784 68.4318 49.2339 68.3486 49.4225V49.4169Z" fill="#3498DB"/>
<path d="M71.111 37.3079C71.0666 38.2176 71.0112 39.1273 70.8503 40.0314C70.817 40.2311 70.7116 40.2311 70.5563 40.2089C69.1141 39.9704 67.6609 39.8151 66.2131 39.6154C65.3145 39.4878 64.4049 39.4323 63.5174 39.2216C63.1069 39.1273 62.6742 39.1217 62.2582 39.0829C62.236 39.0829 62.2138 39.0829 62.1917 39.0773C62.3414 37.9347 62.4191 36.7643 62.4191 35.5773C62.4191 34.3902 62.3414 33.2254 62.1917 32.0772C62.702 32.0051 63.2123 31.9274 63.7226 31.8498C64.1441 31.7832 64.5657 31.761 64.9817 31.6889C65.9635 31.5225 66.9675 31.4615 67.9604 31.3339C68.8257 31.223 69.691 31.0843 70.5508 30.9456C70.7671 30.9068 70.8226 30.9567 70.8559 31.173C71.1388 33.2143 71.2164 35.2611 71.1166 37.3134L71.111 37.3079Z" fill="#3498DB"/>
</g>
<defs>
<linearGradient id="paint0_linear_612_16619" x1="20.3254" y1="22.6704" x2="43.3684" y2="53.9823" gradientUnits="userSpaceOnUse">
<stop stop-color="#4086F4"/>
<stop offset="0.33" stop-color="#00AB47"/>
<stop offset="0.7" stop-color="#EB4035"/>
<stop offset="1" stop-color="#F3B700"/>
</linearGradient>
<linearGradient id="paint1_linear_612_16619" x1="27.1241" y1="17.6074" x2="50.122" y2="48.8645" gradientUnits="userSpaceOnUse">
<stop stop-color="#4086F4"/>
<stop offset="0.33" stop-color="#00AB47"/>
<stop offset="0.7" stop-color="#EB4035"/>
<stop offset="1" stop-color="#F3B700"/>
</linearGradient>
<clipPath id="clip0_612_16619">
<rect width="287.883" height="71" fill="white"/>
</clipPath>
</defs>
</svg>
