<svg width="35" height="34" viewBox="0 0 35 34" fill="none" xmlns="http://www.w3.org/2000/svg">
<ellipse cx="17.0557" cy="17" rx="17.0557" ry="17" fill="white"/>
<g clip-path="url(#clip0_658_19671)">
<path d="M27.5141 11.4956C27.3879 11.0132 27.1418 10.5735 26.8002 10.2201C26.4586 9.86677 26.0335 9.61214 25.5671 9.4816C23.8599 9 16.9888 9 16.9888 9C16.9888 9 10.1175 9.01458 8.41022 9.49618C7.94388 9.62673 7.51874 9.88137 7.17714 10.2347C6.83554 10.5881 6.58939 11.0279 6.46322 11.5102C5.94682 14.6478 5.7465 19.4288 6.4774 22.4409C6.60359 22.9232 6.84974 23.363 7.19134 23.7163C7.53294 24.0697 7.95807 24.3243 8.4244 24.4548C10.1316 24.9364 17.0029 24.9364 17.0029 24.9364C17.0029 24.9364 23.874 24.9364 25.5811 24.4548C26.0475 24.3243 26.4726 24.0697 26.8142 23.7163C27.1559 23.363 27.402 22.9233 27.5282 22.4409C28.0729 19.2988 28.2407 14.5208 27.5141 11.4956Z" fill="#FF0000"/>
<path d="M14.8018 20.3836L20.5018 16.9686L14.8018 13.5537V20.3836Z" fill="white"/>
</g>
<defs>
<clipPath id="clip0_658_19671">
<rect width="22" height="16" fill="white" transform="translate(6 9)"/>
</clipPath>
</defs>
</svg>
