<svg width="30" height="30" viewBox="0 0 30 30" fill="none" xmlns="http://www.w3.org/2000/svg">
<g clip-path="url(#clip0_760_2606)">
<path d="M16.619 22.2964C15.8967 22.8692 15.025 22.6949 14.5518 22.1719C14.7012 22.1719 14.8755 22.2217 15.025 22.2466C15.548 22.2964 16.0959 22.3213 16.619 22.2964Z" fill="white"/>
<path d="M15.2993 18.3122C14.826 18.7854 14.3777 19.2835 13.9045 19.7567C13.8547 19.8065 13.8049 19.8314 13.7551 19.9061C13.7551 19.8065 13.7053 19.7318 13.7053 19.682L12.9332 16.4691C12.7339 15.6472 12.5347 14.8004 12.3354 13.9785L14.4774 14.103C14.6766 14.9249 14.8759 15.7717 15.0751 16.5936C15.1747 17.0419 15.2993 17.5152 15.3989 17.9635C15.4238 18.1129 15.3989 18.1876 15.3242 18.2872L15.2993 18.3122Z" fill="url(#paint0_linear_760_2606)"/>
<path d="M23.3935 14.3515C23.2938 14.5756 23.0946 14.7749 22.9451 14.9741C22.8455 15.0986 22.7459 15.2232 22.6463 15.3477C22.0485 16.0451 21.4757 16.7424 20.878 17.4398C19.533 19.0587 18.1632 20.6527 16.8432 22.2716C16.7685 22.3712 16.6938 22.4459 16.5941 22.5206C16.0711 22.5455 15.5481 22.5206 15.0251 22.4708C14.8756 22.4708 14.7262 22.4459 14.5518 22.421C14.5518 22.421 14.4024 22.2217 14.3526 22.1221C14.1284 21.6987 14.1284 21.624 14.4273 21.2753C15.7473 19.781 17.0424 18.3115 18.3625 16.8172C19.0349 16.07 19.6825 15.2979 20.3549 14.5507C20.4795 14.4013 20.6289 14.2518 20.7534 14.1024C20.7783 14.0775 20.8032 14.0277 20.853 13.9779C18.5119 13.1062 16.1956 12.2345 13.8296 11.3627C13.8296 11.4624 13.8545 11.5122 13.8794 11.5869C14.0786 12.4337 14.2779 13.2805 14.4771 14.1273L12.3352 14.0028C12.0612 12.8322 11.7624 11.6367 11.4884 10.4661C11.339 9.84348 11.4884 9.29555 11.9367 8.87215C12.4099 8.44875 12.933 8.37403 13.5058 8.59818C16.5194 9.79367 19.5081 10.9892 22.5217 12.1846C23.4184 12.5333 23.8169 13.5047 23.3935 14.3515Z" fill="url(#paint1_linear_760_2606)"/>
<path d="M5.11231 12.21C4.86325 8.42433 8.72367 6.6062 8.72367 6.6062C18.6113 2.39709 24.1405 9.86888 24.1405 9.86888C24.1405 9.86888 20.8529 7.77678 15.5728 7.65225C10.2678 7.50281 8.47461 10.0432 8.47461 10.0432C6.00892 13.5051 11.0648 13.9036 11.0648 13.9036L12.3101 13.9784L14.452 14.1029L18.5615 14.3519C19.0845 14.4018 19.6823 14.4516 20.3049 14.5761C19.6325 15.3233 18.9849 16.0954 18.3125 16.8425C17.5155 16.7927 16.4196 16.718 15.0249 16.6184C14.3773 16.5686 13.6551 16.5437 12.883 16.4939C12.2852 16.469 11.6377 16.4191 10.9652 16.3942C5.33646 16.0954 5.0874 12.2349 5.0874 12.2349L5.11231 12.21Z" fill="#1A1D2D"/>
<path d="M23.6674 20.9027C23.0199 22.2725 22.0237 23.3434 20.7534 24.0159C19.6327 24.6386 18.3874 24.9623 17.1421 25.1118C14.8009 25.4106 12.3352 25.1865 10.1684 24.1155C8.0016 23.0446 6.15856 21.077 5.38647 18.5864C6.68158 19.3585 8.0016 20.0808 9.37143 20.7034C11.0401 21.4755 12.7586 22.148 14.527 22.397C14.6764 22.397 14.8258 22.4468 15.0002 22.4468C15.5232 22.4966 16.0462 22.5215 16.5692 22.4966C18.0138 22.4219 19.4334 21.9985 20.6289 21.1766C21.0772 20.8778 21.5006 20.4793 21.7248 19.9811C22.0735 19.1343 21.5753 18.0634 20.8531 17.4407C21.4508 16.7434 22.0237 16.046 22.6214 15.3486C23.3686 15.772 23.9912 16.3698 24.2901 17.2166C24.6886 18.3623 24.1407 19.8815 23.6674 20.9027Z" fill="#1A1D2D"/>
<path d="M1.79991 16.7423C1.3516 16.7921 0.903297 16.8419 0.479896 16.9166C0.405178 16.9166 0.380272 16.9166 0.355366 16.817C0.230836 15.9702 0.20593 15.1234 0.255742 14.2517C0.255742 13.8781 0.280648 13.5045 0.355366 13.1309C0.355366 13.0562 0.405178 13.0313 0.479896 13.0562C0.753861 13.106 1.02783 13.1309 1.30179 13.1807C1.67538 13.2306 2.04897 13.2804 2.44747 13.3302C2.64671 13.3551 2.82106 13.38 3.0203 13.4049C3.34408 13.4298 3.64295 13.5045 3.96673 13.5294C3.89201 14.0026 3.86711 14.5008 3.86711 14.9989C3.86711 15.497 3.89201 15.9702 3.96673 16.4683C3.86711 16.4683 3.76748 16.4932 3.66786 16.5181C3.24446 16.568 2.79615 16.6178 2.37275 16.6925C2.19841 16.7174 1.99916 16.7423 1.82482 16.7672L1.79991 16.7423Z" fill="#E67E22"/>
<path d="M6.10863 21.8241C5.58561 22.2226 5.06258 22.6211 4.53956 23.0196C4.16597 23.3185 3.76747 23.5924 3.39388 23.8913C3.29426 23.966 3.24445 23.9411 3.16973 23.8664C2.99539 23.6422 2.82105 23.3932 2.67161 23.169C2.34783 22.6709 2.02405 22.123 1.75009 21.575C1.62556 21.3011 1.50103 21.0271 1.35159 20.7282C1.30178 20.6535 1.35159 20.6286 1.42631 20.6037C1.82481 20.4294 2.1984 20.2799 2.59689 20.1305C3.29426 19.8316 3.99162 19.5577 4.68899 19.2588C5.06258 20.1554 5.5607 21.0022 6.15844 21.7743C6.15844 21.7743 6.13354 21.7743 6.10863 21.7992V21.8241Z" fill="#2ECC71"/>
<path d="M1.40137 9.27067C1.77496 8.37406 2.22327 7.52725 2.7712 6.73026C2.92064 6.53102 3.04517 6.33177 3.1946 6.13252C3.24441 6.0578 3.31913 6.0329 3.39385 6.10761C3.81725 6.43139 4.24065 6.75517 4.66405 7.07895C5.16217 7.45254 5.66029 7.82613 6.15841 8.22462C5.56067 8.99671 5.08746 9.84351 4.68896 10.7401C4.0165 10.4662 3.31913 10.1673 2.64667 9.89332C2.24818 9.71898 1.82478 9.54464 1.42628 9.3952C1.35156 9.37029 1.35156 9.34539 1.37647 9.29558L1.40137 9.27067Z" fill="#E67E22"/>
<path d="M8.20045 23.8418C8.97253 24.4395 9.81933 24.9377 10.7159 25.3112C10.5914 25.6101 10.4669 25.909 10.3424 26.2079C10.0186 27.0049 9.6699 27.7769 9.34612 28.5739C9.32121 28.6486 9.29631 28.6486 9.22159 28.6237C8.39969 28.2751 7.62761 27.8517 6.88043 27.3784C6.60647 27.2041 6.35741 27.0298 6.10835 26.8305C6.00872 26.7558 5.98382 26.706 6.08344 26.5815C6.3325 26.2826 6.55665 25.9588 6.80571 25.635C7.20421 25.112 7.5778 24.6139 7.97629 24.0909C8.05101 24.0161 8.10082 23.9165 8.17554 23.8418H8.20045Z" fill="#2ECC71"/>
<path d="M10.5917 4.31469C10.6415 4.43922 10.6913 4.56375 10.7411 4.68828C9.84448 5.06187 8.99768 5.55999 8.2256 6.13283C8.00144 5.83396 7.77729 5.53509 7.55314 5.23622C7.25427 4.83772 6.95539 4.46413 6.65652 4.06564C6.48218 3.84148 6.30784 3.59242 6.10859 3.36827C6.03387 3.26864 6.05878 3.21883 6.1335 3.16902C6.65652 2.77053 7.22936 2.42184 7.8022 2.09806C8.27541 1.8241 8.77353 1.59995 9.27165 1.37579C9.34637 1.35089 9.37127 1.32598 9.39618 1.4256C9.57052 1.87391 9.76977 2.29731 9.94411 2.72071C10.1683 3.24374 10.3675 3.76676 10.5917 4.28979V4.31469Z" fill="#E67E22"/>
<path d="M13.082 0.479039C13.082 0.479039 13.082 0.354509 13.1817 0.354509C13.9537 0.254886 14.7507 0.205074 15.5228 0.22998C15.9711 0.22998 16.4194 0.279792 16.8677 0.354509C16.9425 0.354509 16.9425 0.404321 16.9425 0.479039C16.8926 0.753005 16.8677 1.02697 16.8179 1.30094C16.7432 1.67453 16.7432 2.07302 16.6436 2.44661C16.5938 2.62095 16.5938 2.8202 16.5689 2.99454C16.544 3.31832 16.4942 3.6421 16.4443 3.94097C15.9711 3.86625 15.473 3.84134 14.9749 3.84134C14.4768 3.84134 14.0036 3.86625 13.5303 3.94097C13.5303 3.79153 13.4805 3.61719 13.4556 3.46775C13.3809 2.99454 13.3311 2.52133 13.2813 2.07302C13.2066 1.55 13.1318 1.02697 13.0571 0.479039H13.082Z" fill="#E67E22"/>
<path d="M16.9176 29.544C16.9176 29.544 16.9176 29.6436 16.8428 29.6436C15.9711 29.7681 15.0745 29.793 14.2028 29.7432C13.8541 29.7432 13.5054 29.7432 13.1568 29.6436C13.082 29.6436 13.0571 29.5938 13.0571 29.5191C13.1318 29.0957 13.1817 28.6474 13.2315 28.199C13.3062 27.7009 13.356 27.1779 13.4307 26.6798C13.4307 26.4556 13.4805 26.2564 13.5303 26.0322C14.0036 26.1069 14.5017 26.1319 14.9998 26.1319C15.4979 26.1319 15.996 26.1069 16.4692 26.0322C16.4692 26.1069 16.4692 26.1817 16.4692 26.2564C16.4942 26.6798 16.5689 27.0783 16.6187 27.4768C16.6685 27.9998 16.7681 28.5477 16.8428 29.0708C16.8428 29.2202 16.8428 29.3696 16.8926 29.4942L16.9176 29.544Z" fill="#2ECC71"/>
<path d="M23.8913 26.6049C23.8913 26.6049 23.9411 26.7792 23.8415 26.829C23.6173 27.0034 23.3683 27.1777 23.1441 27.3272C22.646 27.6509 22.0981 27.9747 21.5501 28.2487C21.2762 28.3732 21.0022 28.4977 20.7033 28.6472C20.6535 28.6472 20.6286 28.6721 20.6037 28.5974C20.4543 28.1989 20.2799 27.8253 20.1056 27.4268C19.9811 27.1528 19.8565 26.8539 19.7569 26.58C19.5826 26.1566 19.4082 25.7332 19.2588 25.3098C20.1554 24.9362 21.0022 24.4381 21.7743 23.8652C21.7743 23.8901 21.8241 23.915 21.8241 23.94C22.1479 24.3384 22.4468 24.7369 22.7705 25.1603C23.0694 25.5588 23.3932 25.9573 23.692 26.3807C23.7668 26.4555 23.8166 26.5551 23.8913 26.6298V26.6049Z" fill="#2ECC71"/>
<path d="M21.7994 6.15799C21.0274 5.56025 20.1805 5.06213 19.2839 4.68854C19.2839 4.63873 19.3337 4.58892 19.3337 4.5391C19.5579 3.96627 19.807 3.41834 20.0311 2.8455C20.2055 2.4221 20.4047 1.97379 20.579 1.55039C20.6538 1.35114 20.6787 1.35114 20.8779 1.42586C21.7247 1.82436 22.5466 2.22285 23.2938 2.77078C23.493 2.92022 23.6923 3.04475 23.8915 3.19418C23.9663 3.244 24.0161 3.2689 23.9413 3.39343C23.6923 3.74211 23.4183 4.06589 23.1693 4.41457C22.9451 4.71345 22.721 4.98741 22.4968 5.28628C22.2726 5.58515 22.0485 5.88403 21.8243 6.1829L21.7994 6.15799Z" fill="#3498DB"/>
<path d="M23.8416 8.22547C24.3148 7.87679 24.7631 7.5281 25.2363 7.15452C25.6597 6.83074 26.108 6.48205 26.5314 6.15828C26.7057 6.00884 26.7306 6.00884 26.8552 6.20809C27.2288 6.73111 27.5774 7.27904 27.9012 7.85188C28.1503 8.32509 28.3744 8.7734 28.5986 9.27152C28.6235 9.34624 28.6484 9.37115 28.5488 9.42096C28.0507 9.62021 27.5774 9.81945 27.0793 10.0187C26.5563 10.2429 26.0333 10.467 25.5103 10.6663C25.4355 10.6912 25.3608 10.7161 25.2861 10.7659C24.9125 9.86926 24.4144 9.02246 23.8167 8.25038L23.8416 8.22547Z" fill="#3498DB"/>
<path d="M28.5988 20.7522C28.2751 21.5242 27.8766 22.2714 27.4283 22.9937C27.229 23.2926 27.0298 23.5914 26.8056 23.8654C26.7558 23.9401 26.706 23.9899 26.6064 23.9152C26.2826 23.6662 25.9588 23.4171 25.635 23.168C25.1369 22.7695 24.6139 22.396 24.1158 22.0224C24.0161 21.9476 23.9414 21.8729 23.8418 21.8231C24.4395 21.051 24.9377 20.2042 25.3112 19.3076C25.5105 19.3823 25.6848 19.4571 25.8841 19.5318C26.4569 19.7808 27.0298 20.005 27.6026 20.254C27.9264 20.3786 28.2502 20.528 28.5739 20.6525C28.6486 20.6774 28.6486 20.7024 28.6237 20.7771L28.5988 20.7522Z" fill="#3498DB"/>
<path d="M29.7444 15.7216C29.7444 16.0952 29.6946 16.4688 29.6448 16.8423C29.6448 16.9171 29.595 16.9171 29.5203 16.9171C28.9225 16.8174 28.3248 16.7427 27.727 16.668C27.3535 16.6182 26.9799 16.5933 26.6063 16.4937C26.4319 16.4439 26.2576 16.4439 26.0833 16.4439C26.0833 16.4439 26.0833 16.4439 26.0583 16.4439C26.1082 15.9706 26.158 15.4725 26.158 14.9993C26.158 14.5261 26.1331 14.028 26.0583 13.5548C26.2825 13.5299 26.4818 13.5049 26.681 13.4551C26.8553 13.4302 27.0297 13.4053 27.204 13.3804C27.6025 13.3057 28.0259 13.2808 28.4493 13.231C28.798 13.1812 29.1716 13.1314 29.5203 13.0566C29.6199 13.0566 29.6448 13.0566 29.6448 13.1563C29.7693 14.0031 29.7942 14.8499 29.7444 15.6967V15.7216Z" fill="#3498DB"/>
</g>
<defs>
<linearGradient id="paint0_linear_760_2606" x1="8.66318" y1="9.642" x2="18.2309" y2="22.6633" gradientUnits="userSpaceOnUse">
<stop stop-color="#4086F4"/>
<stop offset="0.33" stop-color="#00AB47"/>
<stop offset="0.7" stop-color="#EB4035"/>
<stop offset="1" stop-color="#F3B700"/>
</linearGradient>
<linearGradient id="paint1_linear_760_2606" x1="11.4991" y1="7.56026" x2="21.0412" y2="20.5321" gradientUnits="userSpaceOnUse">
<stop stop-color="#4086F4"/>
<stop offset="0.33" stop-color="#00AB47"/>
<stop offset="0.7" stop-color="#EB4035"/>
<stop offset="1" stop-color="#F3B700"/>
</linearGradient>
<clipPath id="clip0_760_2606">
<rect width="29.5385" height="29.5385" fill="white" transform="translate(0.230713 0.230469)"/>
</clipPath>
</defs>
</svg>
